<?xml version="1.0" encoding="utf-8"?>
<!-- Generator: Adobe Illustrator 28.0.0, SVG Export Plug-In . SVG Version: 6.00 Build 0)  -->
<svg version="1.1" id="Layer_1" xmlns="http://www.w3.org/2000/svg" xmlns:xlink="http://www.w3.org/1999/xlink" x="0px" y="0px"
	 viewBox="0 0 600 148.32" style="enable-background:new 0 0 600 148.32;" xml:space="preserve">
<style type="text/css">
	.st0{fill:#003658;}
	.st1{fill:#7B968A;}
</style>
<g>
	<g>
		<g transform="translate(269.254416, 198.646926)">
			<g>
				<path class="st0" d="M192.08-188.78h31.57c8.49,0,15.4,2.27,20.74,6.8c5.35,4.53,8.03,11.02,8.03,19.45
					c0,6.5-1.62,11.94-4.85,16.33c-3.24,4.38-7.64,7.46-13.21,9.24l30.39,36.48h-25.6l-26.95-34.89v34.89h-20.12V-188.78z
					 M212.21-149.59h2.35c1.86,0,3.43-0.04,4.71-0.12c1.27-0.07,2.74-0.32,4.38-0.74c1.65-0.43,2.97-1.04,3.97-1.82
					c1-0.78,1.85-1.92,2.56-3.41c0.71-1.51,1.06-3.33,1.06-5.47c0-2.13-0.35-3.95-1.06-5.44c-0.71-1.51-1.56-2.66-2.56-3.44
					c-1-0.78-2.32-1.39-3.97-1.82c-1.65-0.43-3.11-0.68-4.38-0.73c-1.28-0.07-2.85-0.12-4.71-0.12h-2.35V-149.59z"/>
			</g>
		</g>
	</g>
	<g>
		<g transform="translate(309.711083, 198.646926)">
			<g>
				<path class="st0" d="M260.34-190.36c4.78,0,9.45,0.7,14,2.09c4.57,1.4,7.96,2.77,10.18,4.12l3.21,2.15l-8.12,16.03
					c-0.65-0.43-1.55-0.98-2.71-1.65c-1.14-0.68-3.28-1.6-6.41-2.74c-3.14-1.13-6.06-1.71-8.77-1.71c-3.35,0-5.94,0.72-7.77,2.15
					c-1.81,1.41-2.71,3.34-2.71,5.77c0,1.22,0.42,2.35,1.27,3.38c0.86,1.02,2.32,2.12,4.38,3.3c2.07,1.18,3.9,2.13,5.47,2.85
					c1.57,0.71,3.99,1.78,7.27,3.21c5.71,2.41,10.57,5.71,14.59,9.88c4.04,4.18,6.06,8.91,6.06,14.18c0,5.06-0.91,9.49-2.74,13.27
					c-1.81,3.79-4.3,6.75-7.47,8.88c-3.18,2.14-6.7,3.73-10.56,4.77c-3.85,1.04-8.02,1.56-12.5,1.56c-3.85,0-7.63-0.4-11.36-1.17
					c-3.71-0.78-6.81-1.76-9.3-2.94c-2.49-1.18-4.74-2.33-6.74-3.47c-2-1.15-3.46-2.12-4.38-2.91l-1.38-1.18l10.06-16.92
					c0.84,0.73,2.01,1.65,3.5,2.77c1.51,1.1,4.16,2.58,7.97,4.44c3.83,1.85,7.19,2.76,10.12,2.76c8.48,0,12.74-2.89,12.74-8.68
					c0-1.21-0.31-2.33-0.91-3.35c-0.61-1.04-1.68-2.07-3.21-3.12c-1.53-1.04-2.88-1.85-4.06-2.44c-1.18-0.6-3.11-1.54-5.79-2.8
					c-2.67-1.25-4.64-2.21-5.91-2.85c-5.36-2.63-9.5-5.92-12.42-9.88c-2.93-3.96-4.39-8.22-4.39-12.8c0-7.9,2.92-14.36,8.77-19.39
					C246.17-187.84,252.84-190.36,260.34-190.36z"/>
			</g>
		</g>
	</g>
	<g>
		<g>
			<g transform="translate(85.89254, 198.646926)">
				<g>
					<path class="st0" d="M50.32-188.78v70.64h30.39v17.65H30.19v-88.29H50.32z"/>
				</g>
			</g>
		</g>
		<g>
			<g transform="translate(117.769198, 198.646926)">
				<g>
					<path class="st0" d="M108.85-188.78v17.68H78.46v17.53h29.1v17.65h-29.1v17.77h30.39v17.65H58.34v-88.29H108.85z"/>
				</g>
			</g>
		</g>
		<g>
			<g transform="translate(150.498178, 198.646926)">
				<g>
					<path class="st0" d="M132.07-188.78l35.63,88.29h-21.6l-6.53-17.65h-33.6l-6.53,17.65H77.82l35.63-88.29H132.07z
						 M132.72-135.79l-9.85-25.68h-0.21l-9.86,25.68H132.72z"/>
				</g>
			</g>
		</g>
		<g>
			<g transform="translate(194.818695, 198.646926)">
				<g>
					<path class="st0" d="M126.36-188.78h25.57c12.28,0,22.76,4.2,31.45,12.59c8.71,8.38,13.06,18.88,13.06,31.51
						c0,12.7-4.34,23.23-13,31.63c-8.65,8.38-19.15,12.56-31.51,12.56h-25.57V-188.78z M146.49-118.46h3.09
						c7.36,0,13.36-2.48,18.03-7.44c4.69-4.96,7.06-11.18,7.12-18.65c0-7.49-2.34-13.74-7-18.74c-4.67-5-10.72-7.5-18.15-7.5h-3.09
						V-118.46z"/>
				</g>
			</g>
		</g>
		<g>
			<g transform="translate(236.525427, 198.646926)">
				<g>
					<path class="st0" d="M213.7-188.78v17.68h-30.39v17.53h29.09v17.65h-29.09v17.77h30.39v17.65h-50.51v-88.29H213.7z"/>
				</g>
			</g>
		</g>
		<g>
			<path class="st1" d="M53.11,46.26c1.15,0,2.13-0.38,2.91-1.15c0.78-0.77,1.18-1.74,1.18-2.94c0-1.19-0.4-2.18-1.21-2.94
				c-0.79-0.76-1.75-1.15-2.88-1.15c-1.18,0-2.15,0.38-2.91,1.15c-0.76,0.77-1.15,1.75-1.15,2.94c0,1.2,0.37,2.18,1.12,2.94
				C50.93,45.88,51.91,46.26,53.11,46.26z"/>
			<path class="st1" d="M53.13,31.99c1.04,0,1.89-0.33,2.56-1c0.66-0.66,1-1.53,1-2.59c0-1.04-0.34-1.9-1-2.59
				c-0.67-0.71-1.52-1.06-2.56-1.06c-1.04,0-1.9,0.35-2.59,1.06c-0.69,0.69-1.03,1.55-1.03,2.59c0,1.04,0.34,1.9,1.03,2.59
				C51.25,31.66,52.11,31.99,53.13,31.99z"/>
			<path class="st1" d="M53.33,0C23.5,0-0.68,24.18-0.68,54.02c0,29.83,24.18,54.01,54.02,54.01c29.83,0,54.02-24.18,54.02-54.01
				C107.35,24.18,83.16,0,53.33,0z M45.69,21.57c2.18-1.57,4.65-2.35,7.41-2.35c2.82,0,5.28,0.78,7.38,2.32
				c2.1,1.55,3.15,3.49,3.15,5.8c0,3.26-1.38,5.69-4.15,7.3c1.72,0.79,3.1,1.91,4.12,3.35c1.04,1.46,1.56,3.24,1.56,5.36
				c0,2.63-1.22,4.82-3.65,6.59c-2.44,1.76-5.23,2.65-8.39,2.65c-3.22,0-6.03-0.87-8.44-2.62c-2.41-1.77-3.62-3.97-3.62-6.62
				c0-4.1,1.87-7,5.62-8.71c-2.83-1.6-4.24-4.04-4.24-7.3C42.46,25.05,43.53,23.13,45.69,21.57z M18.35,52l14.83-25.74H19.32v-6.44
				H44v2.15L27,52H18.35z M49.1,86.92h-8.65l14.83-25.74H41.42v-6.44H66.1v2.15L49.1,86.92z M89.07,86.92h-25.1v-1.82
				c0.43-0.37,1.01-0.87,1.76-1.5c0.77-0.65,2.1-1.86,4-3.65c1.9-1.8,3.57-3.48,5.03-5.06c1.45-1.57,2.77-3.24,3.97-5.03
				c1.19-1.8,1.79-3.27,1.79-4.38c0-0.45-0.05-0.89-0.15-1.32c-0.08-0.45-0.25-0.99-0.5-1.62c-0.26-0.65-0.73-1.16-1.41-1.56
				c-0.67-0.41-1.5-0.62-2.5-0.62c-1.04,0-2.03,0.52-2.97,1.56c-0.94,1.02-1.64,2.03-2.09,3.03l-0.68,1.53l-6.12-2.97
				c0.07-0.25,0.21-0.59,0.38-1c0.19-0.41,0.62-1.15,1.29-2.24c0.68-1.07,1.43-2.03,2.24-2.85c0.82-0.82,1.94-1.57,3.35-2.24
				c1.43-0.68,2.96-1.03,4.59-1.03c2.12,0,3.96,0.28,5.53,0.82c1.57,0.53,2.78,1.19,3.65,1.97c0.86,0.79,1.56,1.72,2.09,2.79
				c0.53,1.08,0.86,2.08,1,2.97c0.15,0.88,0.24,1.81,0.24,2.77c0,1.4-0.4,2.87-1.18,4.41c-0.79,1.55-1.73,2.93-2.85,4.15
				c-1.1,1.2-2.21,2.31-3.32,3.33c-1.12,1-2.06,1.76-2.82,2.29l-1.18,0.82h11.94V86.92z"/>
		</g>
		<g>
			<g>
				<g transform="translate(41.921923, 224.896769)">
					<g>
						<path class="st0" d="M-13.45-77.31v-15.98h9.83v1.79h-7.94v5.24h7.06v1.79h-7.06v5.35h8.27v1.79H-13.45z"/>
					</g>
				</g>
			</g>
			<g>
				<g transform="translate(50.457564, 224.896769)">
					<g>
						<path class="st0" d="M-5.21-94.02c1.39,1.81,2.77,3.61,4.15,5.41c1.39,1.81,2.79,3.62,4.21,5.44
							c1.39-1.82,2.77-3.63,4.15-5.44c1.39-1.8,2.79-3.6,4.21-5.41v16.71H9.59v-10.74c0.01-0.12,0.03-0.24,0.03-0.35
							c0.02-0.12,0.04-0.24,0.06-0.38c-1.02,1.49-2.1,2.94-3.24,4.35c-1.12,1.41-2.22,2.84-3.29,4.27
							c-1.02-1.33-2.05-2.66-3.06-3.97c-1.02-1.33-2.05-2.68-3.06-4.03l-0.41-0.62c0,0.14,0,0.26,0,0.38
							c0.02,0.12,0.04,0.24,0.06,0.35v10.74h-1.88V-94.02z"/>
					</g>
				</g>
			</g>
			<g>
				<g transform="translate(63.06705, 224.896769)">
					<g>
						<path class="st0" d="M6.84-86.25h2c0.66,0,1.21-0.09,1.65-0.27c0.43-0.18,0.77-0.39,1.03-0.65c0.27-0.25,0.45-0.54,0.56-0.85
							c0.12-0.33,0.18-0.65,0.18-0.94c0-0.33-0.09-0.66-0.27-0.97c-0.18-0.31-0.43-0.59-0.73-0.82c-0.29-0.24-0.65-0.42-1.06-0.56
							c-0.41-0.13-0.85-0.2-1.32-0.2H6.84V-86.25z M4.95-77.31v-15.98h3.77c0.51,0,1.07,0.08,1.71,0.24
							c0.65,0.16,1.24,0.41,1.79,0.76c0.54,0.35,1,0.81,1.35,1.35c0.37,0.55,0.56,1.21,0.56,1.97c0,1.4-0.41,2.5-1.24,3.32
							c-0.82,0.81-2.02,1.21-3.56,1.21h-2.5v7.12H4.95z"/>
					</g>
				</g>
			</g>
			<g>
				<g transform="translate(70.244755, 224.896769)">
					<g>
						<path class="st0" d="M11.38-85.28c0-1.1,0.21-2.15,0.65-3.15c0.43-1,1.01-1.87,1.74-2.62c0.74-0.74,1.6-1.33,2.59-1.76
							c1-0.43,2.06-0.65,3.18-0.65c1.12,0,2.16,0.22,3.15,0.65c1,0.43,1.87,1.02,2.62,1.76c0.74,0.75,1.33,1.62,1.76,2.62
							c0.45,1,0.68,2.05,0.68,3.15c0,1.14-0.23,2.2-0.68,3.18c-0.43,0.98-1.02,1.84-1.76,2.59c-0.75,0.75-1.62,1.34-2.62,1.76
							c-0.99,0.41-2.03,0.62-3.15,0.62c-1.12,0-2.18-0.2-3.18-0.62c-0.99-0.43-1.85-1.01-2.59-1.76c-0.73-0.74-1.31-1.6-1.74-2.59
							C11.59-83.09,11.38-84.15,11.38-85.28z M13.29-85.28c0,0.88,0.15,1.72,0.47,2.5c0.33,0.77,0.78,1.44,1.35,2
							c0.57,0.57,1.24,1.02,2,1.35c0.76,0.34,1.57,0.5,2.44,0.5c0.86,0,1.68-0.16,2.44-0.5c0.76-0.33,1.43-0.78,2-1.35
							c0.57-0.57,1.01-1.24,1.32-2c0.33-0.78,0.5-1.62,0.5-2.5c0-0.88-0.17-1.71-0.5-2.47c-0.32-0.77-0.76-1.43-1.32-2
							c-0.57-0.59-1.24-1.04-2-1.38c-0.77-0.33-1.58-0.5-2.44-0.5c-0.87,0-1.68,0.17-2.44,0.5c-0.77,0.34-1.43,0.79-2,1.38
							c-0.57,0.57-1.02,1.24-1.35,2C13.44-86.99,13.29-86.17,13.29-85.28z"/>
					</g>
				</g>
			</g>
			<g>
				<g transform="translate(81.678162, 224.896769)">
					<g>
						<path class="st0" d="M42.07-93.29h1.88c-1.18,2.81-2.35,5.59-3.53,8.36c-1.18,2.76-2.35,5.55-3.53,8.35l-4.03-9.53
							c-0.04-0.13-0.09-0.26-0.15-0.38c-0.04-0.13-0.07-0.27-0.09-0.41c-0.22,0.87-0.49,1.74-0.82,2.62
							c-0.34,0.87-0.71,1.73-1.12,2.59c-0.4,0.87-0.79,1.73-1.21,2.59c-0.4,0.87-0.77,1.71-1.12,2.53c-1.18-2.8-2.35-5.59-3.53-8.35
							c-1.18-2.77-2.35-5.55-3.53-8.36h1.88c0.84,1.99,1.68,3.94,2.5,5.88c0.82,1.94,1.65,3.9,2.47,5.86l0.21,0.77
							c0.19-0.68,0.42-1.36,0.68-2.03c0.27-0.68,0.56-1.36,0.85-2.03c0.29-0.68,0.6-1.36,0.91-2.03c0.31-0.66,0.6-1.33,0.88-2
							c-0.32-0.74-0.63-1.48-0.94-2.21c-0.32-0.72-0.63-1.46-0.94-2.21h1.91c0.82,1.99,1.65,3.94,2.47,5.88
							c0.82,1.94,1.65,3.9,2.5,5.86l0.21,0.77l0.21-0.77c0.84-1.96,1.66-3.91,2.47-5.86C40.39-89.34,41.22-91.3,42.07-93.29z"/>
					</g>
				</g>
			</g>
			<g>
				<g transform="translate(96.360935, 224.896769)">
					<g>
						<path class="st0" d="M34.61-77.31v-15.98h9.82v1.79h-7.94v5.24h7.06v1.79h-7.06v5.35h8.27v1.79H34.61z"/>
					</g>
				</g>
			</g>
			<g>
				<g transform="translate(104.896579, 224.896769)">
					<g>
						<path class="st0" d="M43.77-86.25h2c0.66,0,1.21-0.09,1.65-0.27c0.43-0.18,0.77-0.39,1.03-0.65c0.27-0.25,0.46-0.54,0.56-0.85
							c0.12-0.33,0.18-0.65,0.18-0.94c0-0.33-0.09-0.66-0.26-0.97c-0.18-0.31-0.43-0.59-0.74-0.82c-0.29-0.24-0.65-0.42-1.06-0.56
							c-0.41-0.13-0.85-0.2-1.32-0.2h-2.03V-86.25z M41.88-77.31v-15.98h3.77c0.51,0,1.07,0.08,1.71,0.24
							c0.65,0.16,1.24,0.41,1.79,0.76c0.54,0.35,1,0.81,1.35,1.35c0.37,0.55,0.56,1.21,0.56,1.97c0,1.14-0.29,2.1-0.85,2.88
							c-0.57,0.76-1.4,1.27-2.5,1.5l3.41,7.27h-2.06l-3.35-7.12h-1.94v7.12H41.88z"/>
					</g>
				</g>
			</g>
			<g>
				<g transform="translate(112.438019, 224.896769)">
					<g>
						<path class="st0" d="M49.48-93.29h1.88v15.98h-1.88V-93.29z"/>
					</g>
				</g>
			</g>
			<g>
				<g transform="translate(117.057457, 224.896769)">
					<g>
						<path class="st0" d="M67.54-93.29v16.71c-1.96-2.08-3.91-4.15-5.86-6.21c-1.93-2.06-3.88-4.13-5.85-6.21
							c-0.06-0.12-0.13-0.21-0.21-0.29c-0.06-0.1-0.13-0.19-0.21-0.29c0,0.12,0,0.24,0,0.35c0.02,0.12,0.04,0.24,0.06,0.35v11.56
							h-1.88v-16.71c1.96,2.14,3.9,4.26,5.83,6.35c1.94,2.08,3.89,4.19,5.86,6.32c0.07,0.1,0.15,0.2,0.21,0.3
							c0.07,0.08,0.15,0.18,0.24,0.29c-0.02-0.12-0.04-0.24-0.06-0.35c0-0.13-0.01-0.27-0.03-0.38v-11.8H67.54z"/>
					</g>
				</g>
			</g>
			<g>
				<g transform="translate(128.1635, 224.896769)">
					<g>
						<path class="st0" d="M70.57-82.34v-1.83h3.15c0.45,0,0.74,0.12,0.88,0.35c0.13,0.22,0.21,0.56,0.21,1.03v4.5
							c-0.61,0.35-1.26,0.64-1.94,0.85c-0.69,0.19-1.43,0.29-2.21,0.29c-1.12,0-2.18-0.2-3.18-0.62c-0.99-0.43-1.85-1.01-2.59-1.76
							c-0.73-0.74-1.31-1.6-1.74-2.59c-0.43-0.98-0.65-2.04-0.65-3.18c0-1.12,0.21-2.18,0.65-3.18c0.43-1,1.01-1.86,1.74-2.59
							c0.74-0.74,1.6-1.33,2.59-1.76c1-0.43,2.06-0.65,3.18-0.65c0.78,0,1.51,0.1,2.21,0.29c0.68,0.2,1.34,0.47,1.97,0.82
							c-0.16,0.28-0.34,0.54-0.53,0.8c-0.18,0.23-0.35,0.48-0.53,0.73c-0.47-0.27-0.96-0.48-1.47-0.62
							c-0.52-0.15-1.06-0.24-1.65-0.24c-0.87,0-1.68,0.17-2.44,0.5c-0.75,0.34-1.41,0.79-1.97,1.38c-0.57,0.59-1.02,1.28-1.35,2.06
							c-0.32,0.77-0.47,1.58-0.47,2.44c0,0.87,0.15,1.69,0.47,2.47c0.33,0.79,0.78,1.46,1.35,2.03c0.57,0.57,1.22,1.02,1.97,1.35
							c0.76,0.34,1.57,0.5,2.44,0.5c0.78,0,1.54-0.13,2.26-0.41v-2.32c0-0.25-0.03-0.43-0.09-0.53c-0.04-0.1-0.19-0.15-0.44-0.15
							H70.57z"/>
					</g>
				</g>
			</g>
			<g>
				<g transform="translate(142.688641, 224.896769)">
					<g>
						<path class="st0" d="M86.6-79.78l1.03,1.5c-0.61,0.35-1.26,0.64-1.94,0.85c-0.69,0.19-1.43,0.29-2.21,0.29
							c-1.12,0-2.18-0.2-3.18-0.62c-0.99-0.43-1.85-1.01-2.59-1.76c-0.73-0.74-1.31-1.6-1.74-2.59c-0.43-0.98-0.65-2.04-0.65-3.18
							c0-1.12,0.21-2.18,0.65-3.18c0.43-1,1.01-1.86,1.74-2.59c0.74-0.74,1.6-1.33,2.59-1.76c1-0.43,2.06-0.65,3.18-0.65
							c0.78,0,1.52,0.1,2.21,0.29c0.68,0.2,1.34,0.47,1.97,0.82c-0.16,0.28-0.34,0.54-0.53,0.8c-0.18,0.23-0.35,0.48-0.53,0.73
							c-0.47-0.27-0.96-0.48-1.47-0.62c-0.52-0.15-1.06-0.24-1.65-0.24c-0.87,0-1.68,0.17-2.44,0.5c-0.75,0.34-1.4,0.79-1.97,1.38
							c-0.57,0.59-1.02,1.28-1.35,2.06c-0.32,0.77-0.47,1.58-0.47,2.44c0,0.87,0.16,1.69,0.47,2.47c0.33,0.79,0.78,1.46,1.35,2.03
							c0.57,0.57,1.22,1.02,1.97,1.35c0.77,0.34,1.58,0.5,2.44,0.5C84.62-78.93,85.66-79.21,86.6-79.78z"/>
					</g>
				</g>
			</g>
			<g>
				<g transform="translate(152.060871, 224.896769)">
					<g>
						<path class="st0" d="M83.99-77.31v-15.98h1.88v7.03h8.62v-7.03h1.91v15.98H94.5v-7.15h-8.62v7.15H83.99z"/>
					</g>
				</g>
			</g>
			<g>
				<g transform="translate(161.796844, 224.896769)">
					<g>
						<path class="st0" d="M99.47-89.08l-0.21-0.74c-0.22,0.77-0.49,1.5-0.82,2.21c-0.32,0.71-0.62,1.43-0.91,2.18H101
							c-0.26-0.6-0.52-1.21-0.77-1.82C99.98-87.86,99.73-88.47,99.47-89.08z M106.33-77.31h-1.88c-0.44-1.06-0.88-2.1-1.32-3.15
							c-0.46-1.06-0.91-2.12-1.35-3.18h-5c-0.46,1.06-0.9,2.12-1.35,3.18c-0.45,1.05-0.9,2.09-1.32,3.15h-1.91
							c1.19-2.8,2.37-5.59,3.53-8.36c1.18-2.77,2.36-5.55,3.56-8.35c1.18,2.81,2.36,5.59,3.53,8.35
							C103.97-82.9,105.15-80.11,106.33-77.31z"/>
					</g>
				</g>
			</g>
			<g>
				<g transform="translate(172.017795, 224.896769)">
					<g>
						<path class="st0" d="M103.03-86.25h2c0.66,0,1.21-0.09,1.65-0.27c0.43-0.18,0.77-0.39,1.03-0.65
							c0.27-0.25,0.46-0.54,0.56-0.85c0.12-0.33,0.18-0.65,0.18-0.94c0-0.33-0.09-0.66-0.27-0.97c-0.18-0.31-0.43-0.59-0.74-0.82
							c-0.29-0.24-0.65-0.42-1.06-0.56c-0.41-0.13-0.85-0.2-1.32-0.2h-2.03V-86.25z M101.14-77.31v-15.98h3.77
							c0.51,0,1.07,0.08,1.71,0.24c0.65,0.16,1.24,0.41,1.79,0.76c0.55,0.35,1,0.81,1.35,1.35c0.37,0.55,0.56,1.21,0.56,1.97
							c0,1.14-0.29,2.1-0.85,2.88c-0.57,0.76-1.41,1.27-2.5,1.5l3.41,7.27h-2.06l-3.35-7.12h-1.94v7.12H101.14z"/>
					</g>
				</g>
			</g>
			<g>
				<g transform="translate(179.559229, 224.896769)">
					<g>
						<path class="st0" d="M115.16-89.08l-0.21-0.74c-0.22,0.77-0.49,1.5-0.82,2.21c-0.32,0.71-0.62,1.43-0.91,2.18h3.47
							c-0.26-0.6-0.51-1.21-0.77-1.82C115.66-87.86,115.41-88.47,115.16-89.08z M122.01-77.31h-1.88c-0.43-1.06-0.88-2.1-1.32-3.15
							c-0.46-1.06-0.9-2.12-1.35-3.18h-5c-0.46,1.06-0.9,2.12-1.35,3.18c-0.46,1.05-0.9,2.09-1.32,3.15h-1.91
							c1.19-2.8,2.37-5.59,3.53-8.36c1.18-2.77,2.36-5.55,3.56-8.35c1.18,2.81,2.35,5.59,3.53,8.35
							C119.66-82.9,120.83-80.11,122.01-77.31z"/>
					</g>
				</g>
			</g>
			<g>
				<g transform="translate(189.78018, 224.896769)">
					<g>
						<path class="st0" d="M128.18-79.78l1.03,1.5c-0.61,0.35-1.26,0.64-1.94,0.85c-0.69,0.19-1.43,0.29-2.21,0.29
							c-1.12,0-2.18-0.2-3.18-0.62c-0.98-0.43-1.84-1.01-2.59-1.76c-0.73-0.74-1.31-1.6-1.74-2.59c-0.43-0.98-0.65-2.04-0.65-3.18
							c0-1.12,0.21-2.18,0.65-3.18c0.43-1,1.01-1.86,1.74-2.59c0.74-0.74,1.6-1.33,2.59-1.76c1-0.43,2.06-0.65,3.18-0.65
							c0.78,0,1.52,0.1,2.21,0.29c0.68,0.2,1.34,0.47,1.97,0.82c-0.16,0.28-0.34,0.54-0.53,0.8c-0.18,0.23-0.35,0.48-0.53,0.73
							c-0.47-0.27-0.96-0.48-1.47-0.62c-0.51-0.15-1.06-0.24-1.65-0.24c-0.87,0-1.68,0.17-2.44,0.5c-0.75,0.34-1.41,0.79-1.97,1.38
							c-0.57,0.59-1.02,1.28-1.35,2.06c-0.32,0.77-0.47,1.58-0.47,2.44c0,0.87,0.15,1.69,0.47,2.47c0.33,0.79,0.78,1.46,1.35,2.03
							c0.57,0.57,1.22,1.02,1.97,1.35c0.76,0.34,1.57,0.5,2.44,0.5C126.2-78.93,127.24-79.21,128.18-79.78z"/>
					</g>
				</g>
			</g>
			<g>
				<g transform="translate(199.15241, 224.896769)">
					<g>
						<path class="st0" d="M136.4-93.29v1.79h-5.33v14.18h-1.91v-14.18h-5.38v-1.79H136.4z"/>
					</g>
				</g>
			</g>
			<g>
				<g transform="translate(207.106081, 224.896769)">
					<g>
						<path class="st0" d="M132.39-77.31v-15.98h9.83v1.79h-7.94v5.24h7.06v1.79h-7.06v5.35h8.27v1.79H132.39z"/>
					</g>
				</g>
			</g>
			<g>
				<g transform="translate(215.641719, 224.896769)">
					<g>
						<path class="st0" d="M141.54-86.25h2c0.66,0,1.21-0.09,1.65-0.27c0.43-0.18,0.77-0.39,1.03-0.65
							c0.27-0.25,0.46-0.54,0.56-0.85c0.12-0.33,0.18-0.65,0.18-0.94c0-0.33-0.09-0.66-0.26-0.97c-0.18-0.31-0.43-0.59-0.74-0.82
							c-0.29-0.24-0.65-0.42-1.06-0.56c-0.41-0.13-0.85-0.2-1.32-0.2h-2.03V-86.25z M139.66-77.31v-15.98h3.77
							c0.51,0,1.07,0.08,1.71,0.24c0.65,0.16,1.24,0.41,1.79,0.76c0.55,0.35,1,0.81,1.35,1.35c0.37,0.55,0.56,1.21,0.56,1.97
							c0,1.14-0.29,2.1-0.85,2.88c-0.57,0.76-1.4,1.27-2.5,1.5l3.41,7.27h-2.06l-3.35-7.12h-1.94v7.12H139.66z"/>
					</g>
				</g>
			</g>
			<g>
				<g transform="translate(228.069316, 224.896769)">
					<g>
						<path class="st0" d="M153.6-81.61c0,0.75,0.24,1.38,0.74,1.88c0.49,0.51,1.13,0.76,1.94,0.76c0.56,0,1.07-0.13,1.5-0.41
							c0.43-0.29,0.74-0.68,0.94-1.15l-2.24-3.71c-0.87,0-1.56,0.23-2.09,0.71C153.87-83.06,153.6-82.43,153.6-81.61z M160.87-81.75
							v0.18c0,0.29-0.04,0.61-0.12,0.94c0.29,0.47,0.57,0.94,0.85,1.41c0.27,0.46,0.56,0.91,0.85,1.36c-0.26,0.18-0.5,0.34-0.74,0.5
							c-0.24,0.16-0.48,0.32-0.74,0.5c-0.22-0.32-0.41-0.62-0.59-0.94c-0.18-0.31-0.37-0.63-0.56-0.94
							c-0.43,0.51-0.96,0.91-1.56,1.21c-0.61,0.29-1.28,0.44-2,0.44c-0.65,0-1.26-0.12-1.82-0.35c-0.55-0.23-1.03-0.56-1.44-0.97
							c-0.4-0.41-0.72-0.88-0.97-1.41c-0.24-0.54-0.35-1.13-0.35-1.77c0-0.54,0.09-1.06,0.26-1.53c0.19-0.49,0.46-0.93,0.8-1.32
							c0.33-0.39,0.71-0.71,1.15-0.97c0.45-0.27,0.94-0.46,1.47-0.56c-0.26-0.43-0.52-0.86-0.79-1.29c-0.28-0.45-0.54-0.9-0.79-1.35
							c-0.28-0.45-0.47-0.92-0.59-1.41c-0.12-0.49-0.14-0.96-0.06-1.41c0.07-0.47,0.25-0.91,0.53-1.33
							c0.29-0.43,0.69-0.79,1.21-1.09c0.41-0.27,0.84-0.43,1.29-0.47c0.45-0.06,0.89-0.04,1.32,0.06c0.43,0.08,0.83,0.21,1.21,0.38
							c0.37,0.16,0.69,0.32,0.97,0.5c-0.12,0.26-0.25,0.5-0.38,0.74c-0.12,0.24-0.24,0.48-0.35,0.73c-0.16-0.07-0.35-0.18-0.59-0.29
							c-0.24-0.12-0.49-0.2-0.77-0.26c-0.26-0.06-0.51-0.09-0.76-0.09c-0.26,0-0.48,0.07-0.68,0.2c-0.63,0.4-0.99,0.9-1.06,1.5
							c-0.06,0.61,0.1,1.21,0.47,1.8c0.57,0.94,1.13,1.88,1.68,2.79c0.57,0.9,1.13,1.82,1.71,2.74c0.01-0.25,0.04-0.47,0.06-0.65
							c0.04-0.19,0.09-0.38,0.15-0.56c0.1-0.33,0.24-0.57,0.44-0.74c0.19-0.16,0.42-0.26,0.68-0.32c0.25-0.06,0.51-0.07,0.79-0.06
							c0.29,0,0.6,0,0.91,0h1.06v1.85h-1c-0.22,0-0.41,0.03-0.56,0.09c-0.16,0.04-0.29,0.15-0.38,0.32
							c-0.08,0.16-0.14,0.4-0.18,0.71C160.88-82.61,160.87-82.23,160.87-81.75z"/>
					</g>
				</g>
			</g>
			<g>
				<g transform="translate(242.691452, 224.896769)">
					<g>
						<path class="st0" d="M174.9-79.78l1.03,1.5c-0.61,0.35-1.26,0.64-1.94,0.85c-0.69,0.19-1.43,0.29-2.21,0.29
							c-1.12,0-2.18-0.2-3.18-0.62c-0.99-0.43-1.85-1.01-2.59-1.76c-0.73-0.74-1.31-1.6-1.74-2.59c-0.44-0.98-0.65-2.04-0.65-3.18
							c0-1.12,0.21-2.18,0.65-3.18c0.43-1,1.01-1.86,1.74-2.59c0.74-0.74,1.6-1.33,2.59-1.76c1-0.43,2.06-0.65,3.18-0.65
							c0.78,0,1.52,0.1,2.21,0.29c0.68,0.2,1.34,0.47,1.97,0.82c-0.16,0.28-0.34,0.54-0.53,0.8c-0.18,0.23-0.35,0.48-0.53,0.73
							c-0.47-0.27-0.96-0.48-1.47-0.62c-0.52-0.15-1.06-0.24-1.65-0.24c-0.87,0-1.68,0.17-2.44,0.5c-0.75,0.34-1.4,0.79-1.97,1.38
							c-0.57,0.59-1.02,1.28-1.35,2.06c-0.32,0.77-0.47,1.58-0.47,2.44c0,0.87,0.15,1.69,0.47,2.47c0.33,0.79,0.78,1.46,1.35,2.03
							c0.57,0.57,1.22,1.02,1.97,1.35c0.77,0.34,1.58,0.5,2.44,0.5C172.91-78.93,173.95-79.21,174.9-79.78z"/>
					</g>
				</g>
			</g>
			<g>
				<g transform="translate(252.063682, 224.896769)">
					<g>
						<path class="st0" d="M171.9-85.28c0-1.1,0.21-2.15,0.65-3.15c0.43-1,1.01-1.87,1.74-2.62c0.74-0.74,1.6-1.33,2.59-1.76
							c1-0.43,2.06-0.65,3.18-0.65c1.12,0,2.16,0.22,3.15,0.65c1,0.43,1.87,1.02,2.62,1.76c0.74,0.75,1.33,1.62,1.77,2.62
							c0.45,1,0.67,2.05,0.67,3.15c0,1.14-0.23,2.2-0.67,3.18c-0.44,0.98-1.02,1.84-1.77,2.59c-0.75,0.75-1.62,1.34-2.62,1.76
							c-0.98,0.41-2.03,0.62-3.15,0.62c-1.12,0-2.18-0.2-3.18-0.62c-0.98-0.43-1.84-1.01-2.59-1.76c-0.73-0.74-1.31-1.6-1.74-2.59
							C172.12-83.09,171.9-84.15,171.9-85.28z M173.81-85.28c0,0.88,0.15,1.72,0.47,2.5c0.33,0.77,0.78,1.44,1.35,2
							c0.57,0.57,1.24,1.02,2,1.35c0.76,0.34,1.57,0.5,2.44,0.5c0.86,0,1.68-0.16,2.44-0.5c0.77-0.33,1.43-0.78,2-1.35
							c0.57-0.57,1.01-1.24,1.32-2c0.33-0.78,0.5-1.62,0.5-2.5c0-0.88-0.17-1.71-0.5-2.47c-0.32-0.77-0.76-1.43-1.32-2
							c-0.57-0.59-1.24-1.04-2-1.38c-0.76-0.33-1.58-0.5-2.44-0.5c-0.87,0-1.68,0.17-2.44,0.5c-0.77,0.34-1.44,0.79-2,1.38
							c-0.57,0.57-1.02,1.24-1.35,2C173.97-86.99,173.81-86.17,173.81-85.28z"/>
					</g>
				</g>
			</g>
			<g>
				<g transform="translate(263.497097, 224.896769)">
					<g>
						<path class="st0" d="M182.88-94.02c1.39,1.81,2.77,3.61,4.15,5.41c1.39,1.81,2.79,3.62,4.21,5.44
							c1.39-1.82,2.77-3.63,4.15-5.44c1.39-1.8,2.8-3.6,4.21-5.41v16.71h-1.91v-10.74c0.02-0.12,0.03-0.24,0.03-0.35
							c0.01-0.12,0.04-0.24,0.06-0.38c-1.02,1.49-2.1,2.94-3.24,4.35c-1.12,1.41-2.22,2.84-3.29,4.27
							c-1.02-1.33-2.05-2.66-3.06-3.97c-1.02-1.33-2.05-2.68-3.06-4.03l-0.41-0.62c0,0.14,0,0.26,0,0.38
							c0.01,0.12,0.04,0.24,0.06,0.35v10.74h-1.88V-94.02z"/>
					</g>
				</g>
			</g>
			<g>
				<g transform="translate(276.106588, 224.896769)">
					<g>
						<path class="st0" d="M194.92-86.25h2c0.66,0,1.21-0.09,1.65-0.27c0.43-0.18,0.77-0.39,1.03-0.65
							c0.27-0.25,0.46-0.54,0.56-0.85c0.12-0.33,0.18-0.65,0.18-0.94c0-0.33-0.09-0.66-0.26-0.97c-0.18-0.31-0.43-0.59-0.74-0.82
							c-0.29-0.24-0.65-0.42-1.06-0.56c-0.41-0.13-0.86-0.2-1.32-0.2h-2.03V-86.25z M193.04-77.31v-15.98h3.76
							c0.51,0,1.07,0.08,1.71,0.24c0.65,0.16,1.24,0.41,1.79,0.76c0.55,0.35,1,0.81,1.35,1.35c0.37,0.55,0.56,1.21,0.56,1.97
							c0,1.4-0.41,2.5-1.23,3.32c-0.83,0.81-2.02,1.21-3.56,1.21h-2.5v7.12H193.04z"/>
					</g>
				</g>
			</g>
			<g>
				<g transform="translate(283.284291, 224.896769)">
					<g>
						<path class="st0" d="M199.64-77.31v-15.98h9.82v1.79h-7.94v5.24h7.06v1.79h-7.06v5.35h8.27v1.79H199.64z"/>
					</g>
				</g>
			</g>
			<g>
				<g transform="translate(291.819929, 224.896769)">
					<g>
						<path class="st0" d="M218.21-93.29v1.79h-5.33v14.18h-1.91v-14.18h-5.38v-1.79H218.21z"/>
					</g>
				</g>
			</g>
			<g>
				<g transform="translate(299.773611, 224.896769)">
					<g>
						<path class="st0" d="M214.2-77.31v-15.98h9.83v1.79h-7.94v5.24h7.06v1.79h-7.06v5.35h8.27v1.79H214.2z"/>
					</g>
				</g>
			</g>
			<g>
				<g transform="translate(308.309249, 224.896769)">
					<g>
						<path class="st0" d="M236.39-93.29v16.71c-1.96-2.08-3.91-4.15-5.85-6.21c-1.93-2.06-3.88-4.13-5.86-6.21
							c-0.06-0.12-0.13-0.21-0.2-0.29c-0.06-0.1-0.13-0.19-0.21-0.29c0,0.12,0,0.24,0,0.35c0.02,0.12,0.03,0.24,0.06,0.35v11.56
							h-1.88v-16.71c1.96,2.14,3.9,4.26,5.82,6.35c1.94,2.08,3.89,4.19,5.85,6.32c0.07,0.1,0.15,0.2,0.21,0.3
							c0.07,0.08,0.15,0.18,0.23,0.29c-0.02-0.12-0.04-0.24-0.06-0.35c0-0.13-0.01-0.27-0.03-0.38v-11.8H236.39z"/>
					</g>
				</g>
			</g>
			<g>
				<g transform="translate(319.415298, 224.896769)">
					<g>
						<path class="st0" d="M242.63-79.78l1.03,1.5c-0.61,0.35-1.26,0.64-1.94,0.85c-0.69,0.19-1.43,0.29-2.21,0.29
							c-1.12,0-2.18-0.2-3.18-0.62c-0.99-0.43-1.85-1.01-2.59-1.76c-0.73-0.74-1.31-1.6-1.74-2.59c-0.43-0.98-0.65-2.04-0.65-3.18
							c0-1.12,0.21-2.18,0.65-3.18c0.43-1,1.01-1.86,1.74-2.59c0.74-0.74,1.6-1.33,2.59-1.76c1-0.43,2.06-0.65,3.18-0.65
							c0.78,0,1.51,0.1,2.21,0.29c0.68,0.2,1.34,0.47,1.97,0.82c-0.16,0.28-0.34,0.54-0.53,0.8c-0.18,0.23-0.35,0.48-0.53,0.73
							c-0.47-0.27-0.96-0.48-1.47-0.62c-0.51-0.15-1.06-0.24-1.65-0.24c-0.87,0-1.68,0.17-2.44,0.5c-0.75,0.34-1.4,0.79-1.97,1.38
							c-0.57,0.59-1.02,1.28-1.35,2.06c-0.32,0.77-0.47,1.58-0.47,2.44c0,0.87,0.15,1.69,0.47,2.47c0.33,0.79,0.78,1.46,1.35,2.03
							c0.57,0.57,1.22,1.02,1.97,1.35c0.77,0.34,1.57,0.5,2.44,0.5C240.65-78.93,241.69-79.21,242.63-79.78z"/>
					</g>
				</g>
			</g>
			<g>
				<g transform="translate(328.787528, 224.896769)">
					<g>
						<path class="st0" d="M239.82-77.31v-15.98h9.83v1.79h-7.94v5.24h7.06v1.79h-7.06v5.35h8.27v1.79H239.82z"/>
					</g>
				</g>
			</g>
		</g>
	</g>
</g>
</svg>
